<svg width="152" height="121" viewBox="0 0 152 121" fill="none" xmlns="http://www.w3.org/2000/svg">
<path fill-rule="evenodd" clip-rule="evenodd" d="M104.222 113.766C95.0112 125.649 76.1444 118.18 61.1242 118.534C51.8744 118.753 43.0004 119.303 34.6098 115.409C25.5171 111.189 17.9609 104.897 12.985 96.192C6.1352 84.2085 -3.58076 70.6938 1.77233 57.9607C7.26081 44.9056 23.6839 41.3711 37.4378 38.0276C50.3382 34.8915 64.0512 33.6169 75.6901 39.9916C87.3065 46.3541 93.0916 58.7695 97.871 71.1275C103.258 85.057 113.377 101.955 104.222 113.766Z" fill="#4935FF"/>
<path fill-rule="evenodd" clip-rule="evenodd" d="M150.843 36.5595C149.076 44.691 140.302 48.1867 134.218 53.8465C126.543 60.9864 121.638 73.0597 111.186 73.4518C100.038 73.87 91.4093 64.3362 84.298 55.7192C76.5487 46.3293 66.2716 35.1841 70.0252 23.5762C73.7237 12.1392 89.1788 11.3522 100.183 6.59516C107.639 3.37203 114.844 -0.470734 122.868 0.733257C130.974 1.94953 138.035 6.56097 143.088 13.0328C148.365 19.7901 152.668 28.1647 150.843 36.5595Z" fill="#85AFFF"/>
</svg>
