<svg aria-hidden="true" xmlns="http://www.w3.org/2000/svg" overflow="hidden"><defs><symbol id="search" viewBox="0 0 24 24"><path fill-rule="evenodd" clip-rule="evenodd" d="M3.002 10.508a7.506 7.506 0 1 1 15.012 0 7.506 7.506 0 0 1-15.012 0ZM10.508 0a10.508 10.508 0 1 0 6.305 18.915c.043.056.09.11.14.16l4.503 4.504a1.5 1.5 0 0 0 2.123-2.123l-4.504-4.503a1.492 1.492 0 0 0-.16-.14A10.509 10.509 0 0 0 10.508 0Z"/></symbol><symbol id="home" viewBox="0 0 24 24"><path d="M22.456 9.571 12.84.513A1.925 1.925 0 0 0 10.24.5l-.014.013L.621 9.57A1.92 1.92 0 0 0 0 10.985V22.08A1.919 1.919 0 0 0 1.923 24h5.77a1.925 1.925 0 0 0 1.922-1.92v-5.76h3.846v5.76A1.919 1.919 0 0 0 15.385 24h5.769a1.925 1.925 0 0 0 1.923-1.92V10.985a1.916 1.916 0 0 0-.622-1.414ZM21.154 22.08h-5.77v-5.76a1.919 1.919 0 0 0-1.923-1.92H9.615a1.925 1.925 0 0 0-1.923 1.92v5.76H1.923V10.985l.013-.012 9.603-9.055 9.603 9.053.013.011-.001 11.098Z"/></symbol><symbol id="news" viewBox="0 0 24 24"><path d="M8.571 6.8c0-.225.09-.442.251-.601a.86.86 0 0 1 .607-.249H18c.227 0 .445.09.606.249a.847.847 0 0 1 0 1.202.861.861 0 0 1-.606.249H9.429a.86.86 0 0 1-.607-.249.846.846 0 0 1-.25-.601Zm.858 4.25H18c.227 0 .445-.09.606-.249a.847.847 0 0 0 0-1.202A.861.861 0 0 0 18 9.35H9.429a.86.86 0 0 0-.607.249.846.846 0 0 0 0 1.202.86.86 0 0 0 .607.249ZM24 1.7v12.75c0 .676-.27 1.325-.753 1.803a2.582 2.582 0 0 1-1.818.747H2.57c-.68 0-1.332-.267-1.814-.743A2.54 2.54 0 0 1 0 14.462V4.25c0-.225.09-.442.251-.601a.86.86 0 0 1 1.212 0c.161.16.251.376.251.601v10.2c0 .225.09.442.251.601a.86.86 0 0 0 1.213 0 .846.846 0 0 0 .25-.601V1.7c0-.45.181-.883.503-1.202A1.722 1.722 0 0 1 5.143 0h17.143c.454 0 .89.18 1.212.498.321.319.502.751.502 1.202Zm-1.714 0H5.143v12.75c0 .29-.05.577-.147.85H21.43c.227 0 .445-.09.606-.249a.847.847 0 0 0 .25-.601V1.7Z"/></symbol><symbol id="list" viewBox="0 0 24 24"><path fill-rule="evenodd" clip-rule="evenodd" d="M5.015 7.077c0-.765.62-1.385 1.385-1.385h.123a1.385 1.385 0 1 1 0 2.77H6.4c-.765 0-1.385-.62-1.385-1.385ZM5.015 12c0-.765.62-1.385 1.385-1.385h.123a1.385 1.385 0 1 1 0 2.77H6.4c-.765 0-1.385-.62-1.385-1.385ZM5.015 16.923c0-.765.62-1.384 1.385-1.384h.123a1.385 1.385 0 1 1 0 2.769H6.4c-.765 0-1.385-.62-1.385-1.385Z"/><path fill-rule="evenodd" clip-rule="evenodd" d="M.63.63C1.036.228 1.584 0 2.155 0h19.692A2.154 2.154 0 0 1 24 2.154v19.692A2.154 2.154 0 0 1 21.846 24H2.154A2.154 2.154 0 0 1 0 21.846V2.154C0 1.583.227 1.034.63.63Zm1.524 1.216a.308.308 0 0 0-.308.308v19.692a.308.308 0 0 0 .308.308h19.692a.308.308 0 0 0 .308-.308V2.154a.308.308 0 0 0-.308-.308H2.154Zm8.923 5.23c0-.509.413-.922.923-.922h6.154a.923.923 0 1 1 0 1.846H12a.923.923 0 0 1-.923-.923Zm0 4.924c0-.51.413-.923.923-.923h6.154a.923.923 0 0 1 0 1.846H12a.923.923 0 0 1-.923-.923Zm0 4.923c0-.51.413-.923.923-.923h6.154a.923.923 0 0 1 0 1.846H12a.923.923 0 0 1-.923-.923Z"/></symbol><symbol id="user" viewBox="0 0 24 24"><path fill-rule="evenodd" clip-rule="evenodd" d="M9.58 13.64c-.825.097-1.643.244-2.455.44A22.3 22.3 0 0 0 2.4 15.826a4.37 4.37 0 0 0-1.743 1.63A4.394 4.394 0 0 0 0 19.8V24h24v-4.2a4.381 4.381 0 0 0-.655-2.343 4.378 4.378 0 0 0-1.745-1.632 22.349 22.349 0 0 0-4.725-1.743A20.643 20.643 0 0 0 12 13.5c-.813 0-1.62.046-2.42.14ZM12 12c.782 0 1.51-.132 2.184-.395a5.958 5.958 0 0 0 2.054-1.367C17.413 9.063 18 7.65 18 6c0-1.65-.587-3.063-1.762-4.237C15.063.588 13.65 0 12 0c-1.65 0-3.063.588-4.237 1.762C6.588 2.938 6 4.35 6 6c0 1.65.588 3.063 1.763 4.238a5.957 5.957 0 0 0 2.05 1.366 5.956 5.956 0 0 0 2.188.396Zm8.692 5.607a20.342 20.342 0 0 0-4.288-1.581A18.613 18.613 0 0 0 12 15.5h-.001a18.56 18.56 0 0 0-4.403.524c-1.441.35-2.87.875-4.288 1.583a2.37 2.37 0 0 0-.947.895A2.395 2.395 0 0 0 2 19.8V22h20v-2.202c0-.485-.119-.902-.36-1.294a2.38 2.38 0 0 0-.948-.897ZM9.177 8.823C9.98 9.626 10.885 10 12 10s2.02-.374 2.823-1.177C15.626 8.02 16 7.115 16 6s-.374-2.02-1.177-2.823C14.02 2.374 13.115 2 12 2s-2.02.374-2.823 1.177C8.374 3.98 8 4.885 8 6s.374 2.02 1.177 2.823Z"/></symbol><symbol id="notifications" viewBox="0 0 24 24"><path fill-rule="evenodd" clip-rule="evenodd" d="m8.985 3.298 1.611.003c4.182.01 7.873 3.375 7.924 7.589V15.066c0 .802.108 1.411.42 1.887l.314.48c.903 1.376-.048 3.27-1.742 3.27h-3.525a4.306 4.306 0 0 1-8.371 0H2.09c-1.69 0-2.647-1.892-1.741-3.27l.315-.48c.311-.475.419-1.083.419-1.886v-4.173c.029-4.211 3.711-7.606 7.902-7.596Zm-1.24 17.404a2.29 2.29 0 0 0 4.113 0H7.745ZM2.09 18.687c-.02 0-.027-.004-.031-.007a.112.112 0 0 1-.044-.09c0-.011.003-.027.018-.05v-.001l.316-.481c.636-.97.749-2.058.749-2.991v-4.162c.023-3.023 2.722-5.6 5.882-5.592l1.611.003c3.168.008 5.874 2.57 5.914 5.592v4.158c0 .934.114 2.022.748 2.99l.316.483a.092.092 0 0 1 .018.051.112.112 0 0 1-.043.09c-.004.003-.012.007-.032.007H2.09Z"/><path fill-rule="evenodd" clip-rule="evenodd" d="M9.801 2.015a1.19 1.19 0 0 0-1.19 1.191v.092h2.381v-.092a1.19 1.19 0 0 0-1.19-1.19ZM7.534.94a3.206 3.206 0 0 1 5.474 2.267v1.1c0 .556-.452 1.007-1.008 1.007H7.603a1.008 1.008 0 0 1-1.008-1.008V3.206c0-.85.338-1.666.94-2.267Z"/></symbol><symbol id="logout" viewBox="0 0 24 24"><path fill-rule="evenodd" clip-rule="evenodd" d="M.991.991A3.385 3.385 0 0 1 3.385 0H12a3.385 3.385 0 0 1 3.385 3.385v2.461a.923.923 0 0 1-1.846 0V3.385A1.539 1.539 0 0 0 12 1.846H3.385a1.538 1.538 0 0 0-1.539 1.539v14.769a1.538 1.538 0 0 0 1.539 1.538H12a1.539 1.539 0 0 0 1.539-1.538v-2.462a.923.923 0 1 1 1.846 0v2.462A3.385 3.385 0 0 1 12 21.538H3.385A3.384 3.384 0 0 1 0 18.154V3.384C0 2.488.357 1.627.991.992Z"/><path fill-rule="evenodd" clip-rule="evenodd" d="M18.732 6.424a.923.923 0 0 1 1.305 0l3.693 3.692c.36.361.36.946 0 1.306l-3.693 3.692a.923.923 0 1 1-1.305-1.305l2.116-2.117H8.308a.923.923 0 0 1 0-1.846h12.54L18.732 7.73a.923.923 0 0 1 0-1.306Z"/></symbol><symbol id="arrow" viewBox="0 0 24 24"><path fill-rule="evenodd" clip-rule="evenodd" d="M22 14a2 2 0 0 0 1.414-3.414l-10-10a2 2 0 0 0-2.828 0l-10 10A2 2 0 0 0 2 14h20Z"/></symbol><symbol id="chevron" viewBox="0 0 24 24"><path d="M.66 13.621a2.255 2.255 0 0 0 3.187 0l8.18-8.18 8.18 8.18a2.256 2.256 0 0 0 3.188-3.188L13.62.66a2.256 2.256 0 0 0-3.188 0L.66 10.433a2.255 2.255 0 0 0 0 3.188Z"/></symbol><symbol id="checkmark" viewBox="0 0 24 24"><path fill-rule="evenodd" clip-rule="evenodd" d="M23.455.461c.693.646.73 1.73.084 2.423L9.825 17.578a1.714 1.714 0 0 1-2.466.042L.502 10.763A1.714 1.714 0 1 1 2.926 8.34L8.53 13.94 21.032.545A1.714 1.714 0 0 1 23.456.46Z"/></symbol></defs></svg>