<svg width="37" height="45" viewBox="0 0 37 45" fill="none" xmlns="http://www.w3.org/2000/svg">
<path d="M5.25268 34.0732C5.25411 33.9828 5.58912 34.471 5.60191 34.7584L5.15193 35.5677C4.85256 35.6868 4.48589 35.6277 4.21196 35.3847C3.83564 35.051 3.78076 34.4983 4.08872 34.151C4.22855 33.9933 4.42219 33.9101 4.62415 33.8914L4.44252 33.4542C4.24287 33.1699 -0.332291 26.6179 0.835682 23.2697C0.671471 23.1106 0.647699 22.8615 0.789748 22.7013C0.935127 22.5374 1.19842 22.5328 1.37607 22.6903C1.5544 22.8484 1.57941 23.1098 1.43403 23.2738C1.33526 23.3852 1.1852 23.4164 1.04206 23.3811C0.0772016 26.2422 3.54788 31.7231 4.43762 33.0609C3.73842 30.5384 3.51538 28.0581 3.73033 26.8336C3.83877 26.2155 4.61211 25.1262 5.50734 23.8667C6.4744 22.5043 7.55016 20.9879 7.85319 19.9332C7.81861 19.9148 7.78305 19.8989 7.75253 19.8719C7.57488 19.7143 7.54865 19.453 7.69402 19.289C7.8394 19.1251 8.10202 19.1199 8.27967 19.2774C8.45732 19.4349 8.483 19.6969 8.33762 19.8609C8.26937 19.9378 8.17499 19.976 8.07684 19.9828C7.76931 21.085 6.67906 22.6232 5.6967 24.0055L5.68702 24.0192C5.63445 24.0932 5.58207 24.167 5.53005 24.2405C4.74964 25.3417 4.04806 26.3554 3.95417 26.8912C3.71719 28.2348 4.02521 31.137 4.9264 33.918C5.04057 33.9477 5.15079 33.9996 5.25268 34.0732Z" fill="black"/>
<path d="M8.71693 39.8738C8.71693 39.8738 29.9987 37.2173 31.5246 17.3606C31.5246 17.3606 30.5604 6.45613 25.7938 2.03599C25.7938 2.03599 21.3907 -4.85115 15.3373 9.49493C15.3365 9.49525 7.00805 27.9362 8.71693 39.8738Z" fill="#4935FF"/>
<path d="M34.4135 35.2542C27.3788 42.8884 19.4768 42.8707 8.64326 39.6878C8.64326 39.6878 14.2458 32.3005 22.7832 28.0786C31.3205 23.8577 41.449 27.6204 34.4135 35.2542Z" fill="#85AFFF"/>
<path d="M12.5488 42.1751C12.8342 42.518 13.7884 44.527 13.4459 44.812C13.1035 45.097 11.3011 43.794 11.0157 43.451L7.61673 38.421L6.34405 37.5404C6.05879 37.1976 5.27427 35.6899 5.61666 35.4049C5.95912 35.1199 7.29957 36.1655 7.58459 36.5079L8.19811 37.8937L12.5488 42.1751Z" fill="black"/>
<path d="M5.99995 34.5C5.99995 33.6715 5.32838 33 4.49995 33C3.67153 33 2.99995 33.6715 2.99995 34.5C2.99995 35.3284 3.67153 36 4.49995 36C5.32838 36 5.99995 35.3284 5.99995 34.5Z" fill="black"/>
</svg>
